# Blender v2.81 (sub 16) OBJ File: ''
# www.blender.org
mtllib cube.mtl
o Cube.001
v 1.000000 0.000000 0.000000
v 1.000000 1.000000 1.000000
v 1.000000 -0.000000 1.000000
v 0.000000 1.000000 1.000000
v 0.000000 0.000000 0.000000
v 0.000000 -0.000000 1.000000
v 1.000000 1.000000 1.000000
v 1.000000 1.000000 0.000000
v 1.000000 -0.000000 1.000000
v 0.000000 0.000000 0.000000
v 1.000000 0.000000 0.000000
v 0.000000 1.000000 0.000000
v 0.000000 1.000000 1.000000
v 0.000000 1.000000 1.000000
v 1.000000 1.000000 1.000000
v 0.000000 0.000000 0.000000
v 1.000000 1.000000 0.000000
v 1.000000 0.000000 0.000000
v 1.000000 1.000000 0.000000
v 0.000000 1.000000 0.000000
v 1.000000 1.000000 1.000000
v 0.000000 -0.000000 1.000000
v 1.000000 -0.000000 1.000000
v 1.000000 1.000000 0.000000
v 0.000000 1.000000 0.000000
v 0.000000 -0.000000 1.000000
v 0.000000 1.000000 0.000000
v 0.000000 1.000000 1.000000
vt 1.000000 1.000000
vt 0.000000 0.000000
vt 0.000000 1.000000
vt 0.000000 0.000000
vt 1.000000 1.000000
vt 0.000000 1.000000
vt 1.000000 0.000000
vt 0.000000 1.000000
vt 1.000000 1.000000
vt 1.000000 1.000000
vt 0.000000 0.000000
vt 0.000000 1.000000
vt 0.000000 0.000000
vt 1.000000 1.000000
vt 0.000000 1.000000
vt 1.000000 0.000000
vt 1.000000 0.000000
vt 0.000000 0.000000
vt 1.000000 0.000000
vt 1.000000 0.000000
vt 0.000100 0.999900
vt 0.000100 0.000100
vt 0.999900 0.000100
vt 0.999900 0.999900
vn 1.0000 0.0000 0.0000
vn -1.0000 0.0000 0.0000
vn 0.0000 -1.0000 -0.0000
vn 0.0000 0.0000 -1.0000
vn 0.0000 0.7071 0.7071
vn 0.0000 -0.0000 1.0000
vn 0.0000 1.0000 0.0000
usemtl texture
s 1
f 1/1/1 2/2/1 3/3/1
f 4/4/2 5/5/2 6/6/2
f 9/7/3 10/8/3 11/9/3
f 16/10/4 17/11/4 18/12/4
f 21/13/5 22/14/6 23/15/6
f 1/1/1 24/16/1 2/2/1
f 4/4/2 25/17/2 5/5/2
f 9/7/3 26/18/3 10/8/3
f 16/10/4 27/19/4 17/11/4
f 21/13/5 28/20/5 22/14/6
f 27/21/7 28/22/5 21/23/5
f 24/24/7 27/21/7 21/23/5
l 7 8
l 12 13
l 14 15
l 19 20
