# Blender v2.78 (sub 0) OBJ File: 'slope.blend'
# www.blender.org
mtllib reflection.mtl
o Cube
v 0.000000 0.000000 0.000000
v 0.000000 1.000000 0.000000
v 0.000000 0.000000 1.000000
v 1.000000 1.000000 0.000000
v 1.000000 0.000000 1.000000
v 0.000000 0.000000 1.000000
v 0.000000 1.000000 0.000000
v 1.000000 0.000000 0.000000
v 1.000000 1.000000 0.000000
v 1.000000 0.000000 1.000000
v 1.000000 0.000000 0.000000
v 1.000000 0.000000 1.000000
v 0.000000 0.000000 1.000000
v 0.000000 0.000000 0.000000
v 1.000000 0.000000 0.000000
v 0.000000 0.000000 0.000000
v 1.000000 1.000000 0.000000
v 0.000000 1.000000 0.000000
vt 1.0000 1.0000
vt 0.0000 0.0000
vt 1.0000 0.0000
vt 0.0000 0.0000
vt 1.0000 1.0000
vt 0.0000 1.0000
vt 1.0000 0.0000
vt 0.0000 1.0000
vt 0.0000 0.0000
vt 1.0000 1.0000
vt 0.0000 0.0000
vt 1.0000 0.0000
vt 1.0000 0.0000
vt 1.0000 1.0000
vt 0.0000 1.0000
vt 0.0000 1.0000
vt 1.0000 1.0000
vt 0.0000 1.0000
vn 0.0000 0.0000 -1.0000
vn 1.0000 0.0000 0.0000
vn 0.0000 0.7071 0.7071
vn 0.0000 -1.0000 0.0000
vn -1.0000 0.0000 0.0000
usemtl texture
s off
f 15/1/1 18/2/1 17/3/1
f 9/4/2 10/5/2 8/6/2
f 7/7/3 5/8/3 4/9/3
f 12/10/4 14/11/4 11/12/4
f 2/13/5 1/14/5 3/15/5
f 15/1/1 16/16/1 18/2/1
f 7/7/3 6/17/3 5/8/3
f 12/10/4 13/18/4 14/11/4
